<?xml version="1.0" standalone="no"?>
<!DOCTYPE svg PUBLIC "-//W3C//DTD SVG 20010904//EN"
 "http://www.w3.org/TR/2001/REC-SVG-20010904/DTD/svg10.dtd">
<svg version="1.0" xmlns="http://www.w3.org/2000/svg"
 width="256.000000pt" height="194.000000pt" viewBox="0 0 256.000000 194.000000"
 preserveAspectRatio="xMidYMid meet">

<g transform="translate(0.000000,194.000000) scale(0.100000,-0.100000)"
fill="rgb(1,81,152)" stroke="none">
<path d="M1075 1804 c-131 -108 -124 -96 -71 -135 25 -19 45 -37 46 -40 0 -4
-138 -111 -307 -239 -170 -128 -314 -238 -321 -243 -13 -10 -21 -6 -108 60
l-30 22 -103 -86 -104 -87 33 -26 c19 -14 43 -33 54 -43 l21 -17 -34 -28 c-82
-65 -85 -48 30 -145 l103 -86 30 22 c17 13 45 34 63 47 l32 23 293 -221 c161
-122 307 -233 323 -246 l30 -25 -23 -16 c-13 -9 -35 -27 -49 -39 l-26 -22 107
-88 107 -87 51 41 c28 22 54 40 58 40 4 0 30 -18 58 -40 l51 -41 107 87 107
88 -39 33 c-21 18 -42 33 -46 33 -26 0 24 42 300 250 169 128 313 238 320 243
13 10 21 6 108 -60 l31 -23 103 87 c98 83 102 88 83 102 -11 9 -35 28 -54 44
l-34 27 34 28 c19 15 43 34 54 42 18 15 15 20 -84 103 l-103 86 -30 -22 c-87
-66 -95 -70 -108 -60 -7 5 -151 115 -320 243 -276 208 -326 250 -300 250 4 0
25 15 46 33 l39 33 -107 88 -107 87 -51 -41 c-28 -22 -54 -40 -58 -40 -4 0
-30 18 -58 40 -27 22 -51 40 -53 39 -2 0 -44 -34 -94 -75z m393 -484 c100 -74
181 -138 182 -142 0 -5 -166 -8 -370 -8 -203 0 -370 3 -370 8 1 9 363 281 371
279 3 -1 88 -63 187 -137z m-598 -185 c0 -3 -9 -24 -20 -45 l-20 -40 -90 0
c-73 0 -90 -3 -90 -15 0 -12 15 -15 78 -15 107 0 109 -2 94 -91 -7 -40 -18
-84 -25 -98 l-12 -26 -173 -3 -172 -2 22 45 22 45 98 0 c91 0 98 1 98 20 0 18
-7 20 -79 20 -108 0 -113 6 -92 103 24 111 17 107 202 107 88 0 159 -2 159 -5z
m135 -52 c3 -32 9 -78 13 -101 l7 -44 50 101 49 101 63 0 c35 0 63 -3 63 -7 0
-3 -43 -80 -97 -170 l-96 -164 -66 3 -66 3 -7 80 c-13 154 -16 165 -44 165
-29 0 -29 1 -4 50 20 39 22 40 74 40 l55 0 6 -57z m379 20 c3 -21 6 -57 6 -80
0 -24 3 -43 8 -43 4 0 20 36 37 80 l29 80 42 0 c43 0 43 0 48 -42 4 -24 7 -63
9 -88 l2 -45 35 85 35 85 68 3 c37 2 67 1 67 -2 0 -2 -36 -79 -79 -170 l-80
-166 -64 0 -65 0 -7 53 -8 52 -26 -53 -26 -53 -55 3 -55 3 -7 70 c-19 181 -17
175 -44 175 -29 0 -29 1 -4 50 20 39 22 40 74 40 l53 0 7 -37z m726 32 c0 -3
-9 -24 -20 -45 l-20 -40 -90 0 c-73 0 -90 -3 -90 -15 0 -12 15 -15 78 -15 107
0 109 -2 94 -91 -7 -40 -18 -84 -25 -98 l-12 -26 -173 -3 -172 -2 22 45 22 45
98 0 c91 0 98 1 98 20 0 18 -7 20 -77 20 -108 0 -110 2 -95 92 21 122 15 118
202 118 88 0 160 -2 160 -5z m-452 -364 c-1 -6 -87 -73 -190 -151 l-188 -140
-187 140 c-104 78 -189 145 -191 151 -2 5 144 9 378 9 234 0 380 -4 378 -9z"/>
</g>
</svg>
